<svg xmlns="http://www.w3.org/2000/svg" viewBox="0 0 260 80" role="img" aria-label="Bharat Cater Hub">
  <g transform="translate(12 14) rotate(-10 22 18)">
    <path
      fill="#d4af37"
      d="M10 25c0-3.2 2.4-5.8 5.6-6.6.8-2.8 3.4-4.9 6.4-4.9s5.6 2.1 6.4 4.9c3.2.8 5.6 3.4 5.6 6.6 0 2.8-2 5.1-4.6 5.6V35c0 1.8-1.4 3.2-3.2 3.2H17.8c-1.8 0-3.2-1.4-3.2-3.2v-4.4C14.4 30.1 12.4 27.8 10 25Zm7.4 5.4V35h13.2v-4.6H17.4Z"
    />
  </g>
  <text
    x="58"
    y="46"
    fill="#ffffff"
    font-family="'Great Vibes', 'Brush Script MT', 'Segoe Script', Georgia, serif"
    font-size="40"
    font-weight="400"
  >Bharat</text>
  <g transform="translate(58 50) rotate(-2)">
    <rect width="88" height="22" rx="4" fill="#e53935" />
    <text
      x="44"
      y="15"
      fill="#ffffff"
      font-family="Arial, Helvetica, sans-serif"
      font-size="9"
      font-weight="700"
      text-anchor="middle"
      letter-spacing="1.6"
    >CATER HUB</text>
  </g>
</svg>
