<svg id="Layer_1" data-name="Layer 1" xmlns="http://www.w3.org/2000/svg" xmlns:xlink="http://www.w3.org/1999/xlink" viewBox="0 0 32 32"><defs><style>.cls-1{fill:url(#linear-gradient);}.cls-2{fill:url(#linear-gradient-2);}.cls-3{fill:url(#linear-gradient-3);}.cls-4{fill:url(#linear-gradient-4);}.cls-5{fill:url(#linear-gradient-5);}.cls-6{fill:url(#linear-gradient-6);}</style><linearGradient id="linear-gradient" x1="-1.41" y1="20.43" x2="40.08" y2="34.23" gradientUnits="userSpaceOnUse"><stop offset="0" stop-color="#331700"/><stop offset="0.27" stop-color="#462800"/><stop offset="0.46" stop-color="#926719"/><stop offset="0.78" stop-color="#d9aa39"/></linearGradient><linearGradient id="linear-gradient-2" x1="11.57" y1="6.92" x2="19.94" y2="9.7" xlink:href="#linear-gradient"/><linearGradient id="linear-gradient-3" x1="4.11" y1="15.79" x2="30.83" y2="24.68" xlink:href="#linear-gradient"/><linearGradient id="linear-gradient-4" x1="6.57" y1="15.26" x2="11.7" y2="16.97" xlink:href="#linear-gradient"/><linearGradient id="linear-gradient-5" x1="18.43" y1="14.96" x2="27.69" y2="18.04" xlink:href="#linear-gradient"/><linearGradient id="linear-gradient-6" x1="13.1" y1="14.96" x2="19.37" y2="17.05" xlink:href="#linear-gradient"/></defs><path class="cls-1" d="M31.36,25.58H.64a.64.64,0,0,0,0,1.28H31.36a.65.65,0,0,0,.64-.64A.64.64,0,0,0,31.36,25.58Z"/><path class="cls-2" d="M20.81,7.08l-1.4,3.59a11.83,11.83,0,0,0-6.5,0l-1.4-3.59a2.16,2.16,0,0,1,1.12.52s.06,0,.17.52.19,1.22.76,1.07.55-.77.58-1.07h-.07a.52.52,0,1,1,.52-.52.5.5,0,0,1-.22.42c.11.22.43.79.91.72a.65.65,0,0,0,.62-.58V7.47s-.7-.19-.62-.75a3,3,0,0,0,.89-1.58,3,3,0,0,0,.89,1.58c.08.56-.62.75-.62.75v.69a.65.65,0,0,0,.62.58c.46.07.78-.46.89-.69a.53.53,0,0,1-.25-.45.52.52,0,1,1,.52.52h0c0,.31.15,1,.58,1.07s.66-.54.77-1.07.16-.52.16-.52A2.16,2.16,0,0,1,20.81,7.08Z"/><path class="cls-3" d="M30.63,23.45a18.57,18.57,0,0,0-.89-3,17.32,17.32,0,0,0-2-3.76,14.17,14.17,0,0,0-3.62-3.5A15,15,0,0,0,18.43,11a12.62,12.62,0,0,0-2.27-.21,12.87,12.87,0,0,0-1.94.15,16.09,16.09,0,0,0-3.12.81,13.89,13.89,0,0,0-4.64,2.85A15.29,15.29,0,0,0,3.6,18.28a18.23,18.23,0,0,0-1.49,3.53,17.65,17.65,0,0,0-.56,2.39s-.06.47-.06.47H30.83S30.65,23.51,30.63,23.45ZM2.35,24q.07-.61.21-1.23a2,2,0,0,0,.11.32,1.59,1.59,0,0,0,.8.89l0,0Zm2.71,0a1.22,1.22,0,0,0,.45-.33,1.24,1.24,0,0,0,.24-.92.8.8,0,0,0-.48-.68A1.1,1.1,0,0,0,4.6,22a.72.72,0,0,0-.48.57.74.74,0,0,0,.17.66,1,1,0,0,0,.52.22,1.68,1.68,0,0,1-.67,0,.94.94,0,0,1-.56-.28,1.08,1.08,0,0,1-.24-.72,1.31,1.31,0,0,1,1-1.48,3.44,3.44,0,0,1,1.68.17,7.91,7.91,0,0,1,2.56,1.51,7.38,7.38,0,0,0,2.06,1.22l.43.13Zm15.4-.55a3.15,3.15,0,0,1-3.17-1.13A3.42,3.42,0,0,1,17,20.14,2.68,2.68,0,0,1,17.42,19a2,2,0,0,1,1.34-.86,2.46,2.46,0,0,1,1.76.37,1.34,1.34,0,0,1-.5,2.28.77.77,0,0,1-.79-.34h0a.47.47,0,0,0,.49-.18.49.49,0,0,0,0-.52.57.57,0,0,0-.37-.27.81.81,0,0,0-.41,0,.66.66,0,0,0-.45.5,1.11,1.11,0,0,0,.1.69,1.34,1.34,0,0,0,.44.53,1.65,1.65,0,0,0,1.14.2,1.56,1.56,0,0,0,.94-.42,1.88,1.88,0,0,0,.47-.93,2,2,0,0,0-.54-1.92,2.67,2.67,0,0,0-1.69-.65,2.93,2.93,0,0,0-2.74,1.34,4.09,4.09,0,0,0-.43,2.58A3.08,3.08,0,0,0,18.68,24H13.6a3.08,3.08,0,0,0,2.5-2.6,4.09,4.09,0,0,0-.43-2.58,2.93,2.93,0,0,0-2.74-1.34,2.67,2.67,0,0,0-1.69.65A2,2,0,0,0,10.7,20a1.88,1.88,0,0,0,.47.93,1.56,1.56,0,0,0,.94.42,1.65,1.65,0,0,0,1.14-.2,1.34,1.34,0,0,0,.44-.53,1.11,1.11,0,0,0,.1-.69.67.67,0,0,0-.45-.5.81.81,0,0,0-.41,0,.57.57,0,0,0-.37.27.49.49,0,0,0,0,.52.47.47,0,0,0,.49.18h0a.77.77,0,0,1-.79.34,1.34,1.34,0,0,1-.5-2.28,2.46,2.46,0,0,1,1.76-.37,2,2,0,0,1,1.34.86,2.82,2.82,0,0,1,.46,1.15A3.36,3.36,0,0,1,15,22.3a3.12,3.12,0,0,1-3.16,1.13,4.35,4.35,0,0,1-.52-.1,2.82,2.82,0,0,1-2-2.46.61.61,0,0,0,.75-.21c.31-.41-.1-.89-.1-.89a.76.76,0,0,0-1.1.17c-.37.46-.12,1.6.05,2.18a13.74,13.74,0,0,0-1.65-1.18,4.6,4.6,0,0,0-3-.64,2.34,2.34,0,0,0-1.18.57,14.49,14.49,0,0,1,3.72-5.62,15,15,0,0,1,9.33-3.83,14.73,14.73,0,0,1,9.77,4.26,14.45,14.45,0,0,1,3.31,5.25A2.26,2.26,0,0,0,28,20.3a4.6,4.6,0,0,0-3,.64,13.74,13.74,0,0,0-1.65,1.18c.17-.58.42-1.72.05-2.18a.76.76,0,0,0-1.1-.17s-.41.48-.1.89a.6.6,0,0,0,.74.21,2.8,2.8,0,0,1-2,2.46A4.35,4.35,0,0,1,20.46,23.43Zm7.68,0a1.63,1.63,0,0,1-.66,0,1,1,0,0,0,.52-.22.74.74,0,0,0,.17-.66.72.72,0,0,0-.48-.57,1.1,1.1,0,0,0-.67.07.8.8,0,0,0-.48.68,1.24,1.24,0,0,0,.24.92,1.22,1.22,0,0,0,.45.33H21.18l.43-.13a7.38,7.38,0,0,0,2.06-1.22,7.91,7.91,0,0,1,2.56-1.51A3.44,3.44,0,0,1,27.91,21a1.31,1.31,0,0,1,1,1.48,1.08,1.08,0,0,1-.24.72A.94.94,0,0,1,28.14,23.43Zm.63.55.05,0a1.59,1.59,0,0,0,.8-.89,2,2,0,0,0,.13-.41c.09.43.17.88.23,1.32Z"/><path class="cls-4" d="M13.13,12.67c-.08.05-5.67,3.21-6.58,7.33l-1.41-.44S7.41,14,13.13,12.67Z"/><path class="cls-5" d="M27.18,19.56,25.77,20c-.9-4.12-6.49-7.28-6.58-7.33C24.91,14,27.18,19.56,27.18,19.56Z"/><path class="cls-6" d="M17.37,16.13c.1-2.73-1.22-3-1.22-3s-1.33.32-1.23,3c0,0-1.43-.69-2.26.14a5.48,5.48,0,0,1,2.11.93,3.28,3.28,0,0,1,.74.7,4.75,4.75,0,0,1,.53.93h.22a4.42,4.42,0,0,1,.55-1,3.36,3.36,0,0,1,.64-.61,5.09,5.09,0,0,1,1.42-.75l.54-.17a.9.9,0,0,1,.22-.06C18.8,15.44,17.37,16.13,17.37,16.13Zm-1.22,1.56a6.77,6.77,0,0,1-.61-2.1,3.41,3.41,0,0,1,.61-1.87,3.45,3.45,0,0,1,.6,1.87A6.87,6.87,0,0,1,16.15,17.69Z"/></svg>